<?xml version="1.0"?>
<svg width="256" height="256" xmlns="http://www.w3.org/2000/svg" xmlns:svg="http://www.w3.org/2000/svg" clip-rule="evenodd" fill-rule="evenodd" version="1.1">

 <g class="layer">
  <title>Layer 1</title>
  <g id="svg_1">
   <path d="m158.5,53.5c6.01,0.2 12.01,0.53 18,1c1.72,0.81 3.39,1.81 5,3c0.62,0.42 0.96,1.08 1,2c-0.97,2.26 -1.63,4.59 -2,7c40.43,17.79 58.76,48.79 55,93c-8.46,33.3 -28.79,56.13 -61,68.5c-42.97,15.25 -83.3,10.25 -121,-15c-36.7,-30.29 -44.53,-66.79 -23.5,-109.5c13.08,-19.92 30.91,-33.58 53.5,-41c-0.61,-3.83 -1.28,-7.66 -2,-11.5c0.81,-5.21 3.81,-6.87 9,-5c6.95,2.15 13.62,4.98 20,8.5c3.79,-15.1 12.13,-26.94 25,-35.5c11.28,-2.2 17.95,2.3 20,13.5c-0.94,7.22 -4.44,12.89 -10.5,17c-1.37,1.87 -2.53,3.87 -3.5,6c0.5,0.33 1,0.67 1.5,1c4.97,-2.04 10.14,-3.04 15.5,-3zm-73,18c1.46,0.91 2.46,2.24 3,4c-5.13,2.4 -10.13,5.06 -15,8c-1.32,2.41 -1.15,4.75 0.5,7c2.54,1.85 5.38,3.02 8.5,3.5c6.29,1.02 12.63,1.69 19,2c2.71,4.58 5.54,9.08 8.5,13.5c2.92,3.59 6.42,6.42 10.5,8.5c2.47,0.71 4.81,0.37 7,-1c6.32,-4.98 10.66,-11.31 13,-19c4.63,0.25 9.3,0.75 14,1.5c6.89,0.05 13.05,-1.95 18.5,-6c0.67,-1.67 0.67,-3.33 0,-5c-4.09,-2.3 -7.93,-4.96 -11.5,-8c3.94,-2.1 7.78,-4.44 11.5,-7c24.48,10.48 41.48,28.15 51,53c6.66,30.84 -2.17,56.34 -26.5,76.5c-37.16,26.1 -76.83,30.44 -119,13c-24.39,-11.39 -40.56,-29.89 -48.5,-55.5c-4.59,-33.65 7.24,-59.82 35.5,-78.5c6.6,-3.8 13.27,-7.3 20,-10.5z" fill="#020402" id="svg_2" opacity="0.93"/>
  </g>
  <g id="svg_3">
   <path d="m138.5,27.5c5.66,-0.18 7.82,2.49 6.5,8c-13.49,11.65 -19.16,26.31 -17,44c2.67,2.67 5.33,2.67 8,0c0.33,-2.67 0.67,-5.33 1,-8c9.47,-8.1 20.3,-10.76 32.5,-8c-1.63,1.49 -3.29,2.99 -5,4.5c-6.31,2.28 -12.48,4.78 -18.5,7.5c-0.67,1.33 -0.67,2.67 0,4c3.2,3.54 6.7,6.7 10.5,9.5c-7.51,0.61 -14.84,-0.05 -22,-2c-2.54,4.95 -4.71,10.12 -6.5,15.5c-1.29,2.29 -2.96,4.29 -5,6c-6.52,-6.02 -11.68,-13.02 -15.5,-21c-5.31,-0.62 -10.65,-1.29 -16,-2c2.33,-1.5 4.67,-3 7,-4.5c1.3,-0.8 1.97,-1.97 2,-3.5c-3.48,-5.96 -6.15,-12.3 -8,-19c6.1,0.44 11.6,2.77 16.5,7c0.33,4.67 0.67,9.33 1,14c2.67,2.67 5.33,2.67 8,0c-1.28,-20.67 5.55,-38.01 20.5,-52z" fill="#49a94d" id="svg_4"/>
  </g>
  <g id="svg_9">
   <path d="m38.5,140.5c2.66,-0.34 4.99,0.33 7,2c1.24,21.06 10.41,37.73 27.5,50c0.11,7.36 -3.05,9.19 -9.5,5.5c-14.22,-11.22 -23.05,-25.72 -26.5,-43.5c-1.03,-4.96 -0.53,-9.62 1.5,-14z" fill="#000000" id="svg_10" opacity="0.87"/>
  </g>
 </g>
</svg>